<svg xmlns="http://www.w3.org/2000/svg" style="margin:auto;background:0 0;animation-play-state:running;animation-delay:0s" width="227" height="227" viewBox="0 0 100 100" preserveAspectRatio="xMidYMid" display="block"><rect x="45.5" y="28.5" rx="3.33" ry=".5" width="9" height="1" fill="#242223" style="animation-play-state:running;animation-delay:0s"><animate attributeName="opacity" values="1;0" keyTimes="0;1" dur="1.1764705882352942s" begin="-1.1446740858505564s" repeatCount="indefinite"/></rect><rect x="45.5" y="28.5" rx="3.33" ry=".5" width="9" height="1" fill="#242223" style="animation-play-state:running;animation-delay:0s" transform="rotate(9.73 50 50)"><animate attributeName="opacity" values="1;0" keyTimes="0;1" dur="1.1764705882352942s" begin="-1.1128775834658189s" repeatCount="indefinite"/></rect><rect x="45.5" y="28.5" rx="3.33" ry=".5" width="9" height="1" fill="#242223" style="animation-play-state:running;animation-delay:0s" transform="rotate(19.46 50 50)"><animate attributeName="opacity" values="1;0" keyTimes="0;1" dur="1.1764705882352942s" begin="-1.0810810810810811s" repeatCount="indefinite"/></rect><rect x="45.5" y="28.5" rx="3.33" ry=".5" width="9" height="1" fill="#242223" style="animation-play-state:running;animation-delay:0s" transform="rotate(29.19 50 50)"><animate attributeName="opacity" values="1;0" keyTimes="0;1" dur="1.1764705882352942s" begin="-1.0492845786963434s" repeatCount="indefinite"/></rect><rect x="45.5" y="28.5" rx="3.33" ry=".5" width="9" height="1" fill="#242223" style="animation-play-state:running;animation-delay:0s" transform="rotate(38.919 50 50)"><animate attributeName="opacity" values="1;0" keyTimes="0;1" dur="1.1764705882352942s" begin="-1.0174880763116056s" repeatCount="indefinite"/></rect><rect x="45.5" y="28.5" rx="3.33" ry=".5" width="9" height="1" fill="#242223" style="animation-play-state:running;animation-delay:0s" transform="rotate(48.649 50 50)"><animate attributeName="opacity" values="1;0" keyTimes="0;1" dur="1.1764705882352942s" begin="-0.985691573926868s" repeatCount="indefinite"/></rect><rect x="45.5" y="28.5" rx="3.33" ry=".5" width="9" height="1" fill="#242223" style="animation-play-state:running;animation-delay:0s" transform="rotate(58.378 50 50)"><animate attributeName="opacity" values="1;0" keyTimes="0;1" dur="1.1764705882352942s" begin="-0.9538950715421304s" repeatCount="indefinite"/></rect><rect x="45.5" y="28.5" rx="3.33" ry=".5" width="9" height="1" fill="#242223" style="animation-play-state:running;animation-delay:0s" transform="rotate(68.108 50 50)"><animate attributeName="opacity" values="1;0" keyTimes="0;1" dur="1.1764705882352942s" begin="-0.9220985691573927s" repeatCount="indefinite"/></rect><rect x="45.5" y="28.5" rx="3.33" ry=".5" width="9" height="1" fill="#242223" style="animation-play-state:running;animation-delay:0s" transform="rotate(77.838 50 50)"><animate attributeName="opacity" values="1;0" keyTimes="0;1" dur="1.1764705882352942s" begin="-0.890302066772655s" repeatCount="indefinite"/></rect><rect x="45.5" y="28.5" rx="3.33" ry=".5" width="9" height="1" fill="#242223" style="animation-play-state:running;animation-delay:0s" transform="rotate(87.568 50 50)"><animate attributeName="opacity" values="1;0" keyTimes="0;1" dur="1.1764705882352942s" begin="-0.8585055643879174s" repeatCount="indefinite"/></rect><rect x="45.5" y="28.5" rx="3.33" ry=".5" width="9" height="1" fill="#242223" style="animation-play-state:running;animation-delay:0s" transform="rotate(97.297 50 50)"><animate attributeName="opacity" values="1;0" keyTimes="0;1" dur="1.1764705882352942s" begin="-0.8267090620031796s" repeatCount="indefinite"/></rect><rect x="45.5" y="28.5" rx="3.33" ry=".5" width="9" height="1" fill="#242223" style="animation-play-state:running;animation-delay:0s" transform="rotate(107.027 50 50)"><animate attributeName="opacity" values="1;0" keyTimes="0;1" dur="1.1764705882352942s" begin="-0.794912559618442s" repeatCount="indefinite"/></rect><rect x="45.5" y="28.5" rx="3.33" ry=".5" width="9" height="1" fill="#242223" style="animation-play-state:running;animation-delay:0s" transform="rotate(116.757 50 50)"><animate attributeName="opacity" values="1;0" keyTimes="0;1" dur="1.1764705882352942s" begin="-0.7631160572337043s" repeatCount="indefinite"/></rect><rect x="45.5" y="28.5" rx="3.33" ry=".5" width="9" height="1" fill="#242223" style="animation-play-state:running;animation-delay:0s" transform="rotate(126.486 50 50)"><animate attributeName="opacity" values="1;0" keyTimes="0;1" dur="1.1764705882352942s" begin="-0.7313195548489666s" repeatCount="indefinite"/></rect><rect x="45.5" y="28.5" rx="3.33" ry=".5" width="9" height="1" fill="#242223" style="animation-play-state:running;animation-delay:0s" transform="rotate(136.216 50 50)"><animate attributeName="opacity" values="1;0" keyTimes="0;1" dur="1.1764705882352942s" begin="-0.699523052464229s" repeatCount="indefinite"/></rect><rect x="45.5" y="28.5" rx="3.33" ry=".5" width="9" height="1" fill="#242223" style="animation-play-state:running;animation-delay:0s" transform="rotate(145.946 50 50)"><animate attributeName="opacity" values="1;0" keyTimes="0;1" dur="1.1764705882352942s" begin="-0.6677265500794912s" repeatCount="indefinite"/></rect><rect x="45.5" y="28.5" rx="3.33" ry=".5" width="9" height="1" fill="#242223" style="animation-play-state:running;animation-delay:0s" transform="rotate(155.676 50 50)"><animate attributeName="opacity" values="1;0" keyTimes="0;1" dur="1.1764705882352942s" begin="-0.6359300476947536s" repeatCount="indefinite"/></rect><rect x="45.5" y="28.5" rx="3.33" ry=".5" width="9" height="1" fill="#242223" style="animation-play-state:running;animation-delay:0s" transform="rotate(165.405 50 50)"><animate attributeName="opacity" values="1;0" keyTimes="0;1" dur="1.1764705882352942s" begin="-0.604133545310016s" repeatCount="indefinite"/></rect><rect x="45.5" y="28.5" rx="3.33" ry=".5" width="9" height="1" fill="#242223" style="animation-play-state:running;animation-delay:0s" transform="rotate(175.135 50 50)"><animate attributeName="opacity" values="1;0" keyTimes="0;1" dur="1.1764705882352942s" begin="-0.5723370429252782s" repeatCount="indefinite"/></rect><rect x="45.5" y="28.5" rx="3.33" ry=".5" width="9" height="1" fill="#242223" style="animation-play-state:running;animation-delay:0s" transform="rotate(184.865 50 50)"><animate attributeName="opacity" values="1;0" keyTimes="0;1" dur="1.1764705882352942s" begin="-0.5405405405405406s" repeatCount="indefinite"/></rect><rect x="45.5" y="28.5" rx="3.33" ry=".5" width="9" height="1" fill="#242223" style="animation-play-state:running;animation-delay:0s" transform="rotate(194.595 50 50)"><animate attributeName="opacity" values="1;0" keyTimes="0;1" dur="1.1764705882352942s" begin="-0.5087440381558028s" repeatCount="indefinite"/></rect><rect x="45.5" y="28.5" rx="3.33" ry=".5" width="9" height="1" fill="#242223" style="animation-play-state:running;animation-delay:0s" transform="rotate(204.324 50 50)"><animate attributeName="opacity" values="1;0" keyTimes="0;1" dur="1.1764705882352942s" begin="-0.4769475357710652s" repeatCount="indefinite"/></rect><rect x="45.5" y="28.5" rx="3.33" ry=".5" width="9" height="1" fill="#242223" style="animation-play-state:running;animation-delay:0s" transform="rotate(214.054 50 50)"><animate attributeName="opacity" values="1;0" keyTimes="0;1" dur="1.1764705882352942s" begin="-0.4451510333863275s" repeatCount="indefinite"/></rect><rect x="45.5" y="28.5" rx="3.33" ry=".5" width="9" height="1" fill="#242223" style="animation-play-state:running;animation-delay:0s" transform="rotate(223.784 50 50)"><animate attributeName="opacity" values="1;0" keyTimes="0;1" dur="1.1764705882352942s" begin="-0.4133545310015898s" repeatCount="indefinite"/></rect><rect x="45.5" y="28.5" rx="3.33" ry=".5" width="9" height="1" fill="#242223" style="animation-play-state:running;animation-delay:0s" transform="rotate(233.514 50 50)"><animate attributeName="opacity" values="1;0" keyTimes="0;1" dur="1.1764705882352942s" begin="-0.3815580286168522s" repeatCount="indefinite"/></rect><rect x="45.5" y="28.5" rx="3.33" ry=".5" width="9" height="1" fill="#242223" style="animation-play-state:running;animation-delay:0s" transform="rotate(243.243 50 50)"><animate attributeName="opacity" values="1;0" keyTimes="0;1" dur="1.1764705882352942s" begin="-0.3497615262321145s" repeatCount="indefinite"/></rect><rect x="45.5" y="28.5" rx="3.33" ry=".5" width="9" height="1" fill="#242223" style="animation-play-state:running;animation-delay:0s" transform="rotate(252.973 50 50)"><animate attributeName="opacity" values="1;0" keyTimes="0;1" dur="1.1764705882352942s" begin="-0.3179650238473768s" repeatCount="indefinite"/></rect><rect x="45.5" y="28.5" rx="3.33" ry=".5" width="9" height="1" fill="#242223" style="animation-play-state:running;animation-delay:0s" transform="rotate(262.703 50 50)"><animate attributeName="opacity" values="1;0" keyTimes="0;1" dur="1.1764705882352942s" begin="-0.2861685214626391s" repeatCount="indefinite"/></rect><rect x="45.5" y="28.5" rx="3.33" ry=".5" width="9" height="1" fill="#242223" style="animation-play-state:running;animation-delay:0s" transform="rotate(272.432 50 50)"><animate attributeName="opacity" values="1;0" keyTimes="0;1" dur="1.1764705882352942s" begin="-0.2543720190779014s" repeatCount="indefinite"/></rect><rect x="45.5" y="28.5" rx="3.33" ry=".5" width="9" height="1" fill="#242223" style="animation-play-state:running;animation-delay:0s" transform="rotate(282.162 50 50)"><animate attributeName="opacity" values="1;0" keyTimes="0;1" dur="1.1764705882352942s" begin="-0.22257551669316375s" repeatCount="indefinite"/></rect><rect x="45.5" y="28.5" rx="3.33" ry=".5" width="9" height="1" fill="#242223" style="animation-play-state:running;animation-delay:0s" transform="rotate(291.892 50 50)"><animate attributeName="opacity" values="1;0" keyTimes="0;1" dur="1.1764705882352942s" begin="-0.1907790143084261s" repeatCount="indefinite"/></rect><rect x="45.5" y="28.5" rx="3.33" ry=".5" width="9" height="1" fill="#242223" style="animation-play-state:running;animation-delay:0s" transform="rotate(301.622 50 50)"><animate attributeName="opacity" values="1;0" keyTimes="0;1" dur="1.1764705882352942s" begin="-0.1589825119236884s" repeatCount="indefinite"/></rect><rect x="45.5" y="28.5" rx="3.33" ry=".5" width="9" height="1" fill="#242223" style="animation-play-state:running;animation-delay:0s" transform="rotate(311.351 50 50)"><animate attributeName="opacity" values="1;0" keyTimes="0;1" dur="1.1764705882352942s" begin="-0.1271860095389507s" repeatCount="indefinite"/></rect><rect x="45.5" y="28.5" rx="3.33" ry=".5" width="9" height="1" fill="#242223" style="animation-play-state:running;animation-delay:0s" transform="rotate(321.081 50 50)"><animate attributeName="opacity" values="1;0" keyTimes="0;1" dur="1.1764705882352942s" begin="-0.09538950715421304s" repeatCount="indefinite"/></rect><rect x="45.5" y="28.5" rx="3.33" ry=".5" width="9" height="1" fill="#242223" style="animation-play-state:running;animation-delay:0s" transform="rotate(330.81 50 50)"><animate attributeName="opacity" values="1;0" keyTimes="0;1" dur="1.1764705882352942s" begin="-0.06359300476947535s" repeatCount="indefinite"/></rect><rect x="45.5" y="28.5" rx="3.33" ry=".5" width="9" height="1" fill="#242223" style="animation-play-state:running;animation-delay:0s" transform="rotate(340.54 50 50)"><animate attributeName="opacity" values="1;0" keyTimes="0;1" dur="1.1764705882352942s" begin="-0.03179650238473768s" repeatCount="indefinite"/></rect><rect x="45.5" y="28.5" rx="3.33" ry=".5" width="9" height="1" fill="#242223" style="animation-play-state:running;animation-delay:0s" transform="rotate(350.27 50 50)"><animate attributeName="opacity" values="1;0" keyTimes="0;1" dur="1.1764705882352942s" begin="0s" repeatCount="indefinite"/></rect></svg>